2.2Hzlow3min_grf.mot
version=1
nRows=15
nColumns 19
inDegrees=yes
endheader
time	1_ground_force_vx	1_ground_force_vy	1_ground_force_vz	1_ground_force_px	1_ground_force_py	1_ground_force_pz	1_ground_torque_x	1_ground_torque_y	1_ground_torque_z	2_ground_force_vx	2_ground_force_vy	2_ground_force_vz	2_ground_force_px	2_ground_force_py	2_ground_force_pz	2_ground_torque_x	2_ground_torque_y	2_ground_torque_z
            0.005000	           -0.043910	            1.258115	            0.876787	           -0.303156	            0.006283	           -0.422325	           -0.226238	           -0.045283	           -0.227209	            0.374429	            0.004366	           -0.844865	           -0.250517	            0.005518	           -0.680635	           -0.149992	           -0.085482	           -0.037940
            0.005500	           -0.135578	            0.537232	            0.828067	           -0.303156	            0.006283	           -0.422325	           -0.073476	            0.009840	           -0.156044	            0.234606	           -0.180792	           -0.704678	           -0.250517	            0.005518	           -0.680635	           -0.187818	           -0.019315	           -0.075388
            0.006000	            0.093373	            1.979401	            0.833681	           -0.303156	            0.006283	           -0.422325	           -0.112148	           -0.035876	           -0.240412	            0.231885	            0.556303	           -0.842834	           -0.250517	            0.005518	           -0.680635	           -0.187639	           -0.066645	           -0.056707
            0.006500	            0.139363	            1.798948	            0.878651	           -0.303156	            0.006283	           -0.422325	           -0.132654	           -0.072992	           -0.200963	            0.234503	           -0.179955	           -0.939319	           -0.250517	            0.005518	           -0.680635	           -0.206460	           -0.048077	            0.018769
            0.007000	            0.047303	            1.979786	            0.742083	           -0.303156	            0.006283	           -0.422325	           -0.051784	           -0.045374	           -0.186163	            0.233879	            0.003858	           -0.844805	           -0.250517	            0.005518	           -0.680635	           -0.225347	           -0.028970	           -0.056556
            0.007500	            0.323028	            1.438059	            0.968361	           -0.303156	            0.006283	           -0.422325	           -0.154852	           -0.073312	           -0.099087	            0.327497	            0.004866	           -1.032558	           -0.250517	            0.005518	           -0.680635	           -0.243887	           -0.076907	            0.112935
            0.008000	            0.139447	            0.717550	            0.828157	           -0.303156	            0.006283	           -0.422325	           -0.129921	           -0.017694	           -0.163098	            0.280770	            0.003693	           -0.750969	           -0.250517	            0.005518	           -0.680635	           -0.319120	           -0.067255	           -0.018950
            0.008500	            0.231603	            1.257382	            1.059528	           -0.303156	            0.006283	           -0.422325	           -0.159227	           -0.016924	           -0.328314	            0.186988	            0.004024	           -0.938642	           -0.250517	            0.005518	           -0.680635	           -0.225508	            0.009042	           -0.112972
            0.009000	            0.185565	            1.077501	            0.967157	           -0.303156	            0.006283	           -0.422325	           -0.173506	           -0.045487	           -0.142369	            0.138830	            0.371984	           -0.890380	           -0.250517	            0.005518	           -0.680635	           -0.244106	           -0.038424	           -0.075432
            0.009500	            0.230773	            1.439024	            0.739309	           -0.303156	            0.006283	           -0.422325	           -0.088968	           -0.008323	           -0.178073	            0.189023	           -0.548756	           -0.846757	           -0.250517	            0.005518	           -0.680635	           -0.169051	           -0.009929	           -0.037662
            0.010000	           -0.044105	            1.078243	            0.784302	           -0.303156	            0.006283	           -0.422325	           -0.147029	           -0.054676	           -0.189844	            0.371771	            0.740959	           -0.842237	           -0.250517	            0.005518	           -0.680635	           -0.281840	            0.017821	            0.019038
            0.010500	            0.047434	            1.258723	            0.738992	           -0.303156	            0.006283	           -0.422325	           -0.163806	           -0.082611	           -0.129624	            0.790843	            1.478405	           -0.652076	           -0.250517	            0.005518	           -0.680635	           -0.526399	            0.111533	            0.000628
            0.011000	            0.093586	            1.438408	            0.877218	           -0.303156	            0.006283	           -0.422325	           -0.151200	           -0.073016	           -0.202859	            1.626790	            3.507417	           -0.739063	           -0.250517	            0.005518	           -0.680635	           -0.771010	            0.224017	            0.019987
            0.011500	            0.138860	            1.439399	            0.647825	           -0.303156	            0.006283	           -0.422325	           -0.347971	            0.000986	           -0.218896	            2.834794	            6.275044	           -1.011294	           -0.250517	            0.005518	           -0.680635	           -1.185080	            0.430820	           -0.073346
            0.012000	            0.139315	            1.438613	            0.831249	           -0.303156	            0.006283	           -0.422325	           -0.205747	           -0.044955	           -0.275841	            4.557503	            9.228513	           -1.236159	           -0.250517	            0.005518	           -0.680635	           -1.486283	            0.590901	           -0.204596
